<svg width="11" height="11" viewBox="0 0 11 11" fill="none" xmlns="http://www.w3.org/2000/svg">
<path d="M10.0836 1.03125H8.59375V0.34375C8.59375 0.153656 8.44009 0 8.25 0C8.05991 0 7.90625 0.153656 7.90625 0.34375V1.03125H5.84375V0.34375C5.84375 0.153656 5.68975 0 5.5 0C5.31025 0 5.15625 0.153656 5.15625 0.34375V1.03125H3.09375V0.34375C3.09375 0.153656 2.93975 0 2.75 0C2.56025 0 2.40625 0.153656 2.40625 0.34375V1.03125H0.916781C0.410437 1.03125 0 1.44134 0 1.94769V10.0832C0 10.5896 0.410437 11 0.916781 11H10.0836C10.5899 11 11 10.5896 11 10.0832V1.94769C11 1.44134 10.5899 1.03125 10.0836 1.03125ZM10.3125 10.0832C10.3125 10.2097 10.2097 10.3125 10.0836 10.3125H0.916781C0.790281 10.3125 0.6875 10.2097 0.6875 10.0832V1.94769C0.6875 1.82153 0.790281 1.71875 0.916781 1.71875H2.40625V2.40625C2.40625 2.59634 2.56025 2.75 2.75 2.75C2.93975 2.75 3.09375 2.59634 3.09375 2.40625V1.71875H5.15625V2.40625C5.15625 2.59634 5.31025 2.75 5.5 2.75C5.68975 2.75 5.84375 2.59634 5.84375 2.40625V1.71875H7.90625V2.40625C7.90625 2.59634 8.05991 2.75 8.25 2.75C8.44009 2.75 8.59375 2.59634 8.59375 2.40625V1.71875H10.0836C10.2097 1.71875 10.3125 1.82153 10.3125 1.94769V10.0832Z" fill="white"/>
<path d="M3.78125 4.125H2.40625V5.15625H3.78125V4.125Z" fill="white"/>
<path d="M3.78125 5.84375H2.40625V6.875H3.78125V5.84375Z" fill="white"/>
<path d="M3.78125 7.5625H2.40625V8.59375H3.78125V7.5625Z" fill="white"/>
<path d="M6.1875 7.5625H4.8125V8.59375H6.1875V7.5625Z" fill="white"/>
<path d="M6.1875 5.84375H4.8125V6.875H6.1875V5.84375Z" fill="white"/>
<path d="M6.1875 4.125H4.8125V5.15625H6.1875V4.125Z" fill="white"/>
<path d="M8.59375 7.5625H7.21875V8.59375H8.59375V7.5625Z" fill="white"/>
<path d="M8.59375 5.84375H7.21875V6.875H8.59375V5.84375Z" fill="white"/>
<path d="M8.59375 4.125H7.21875V5.15625H8.59375V4.125Z" fill="white"/>
</svg>
