<svg width="38" height="38" viewBox="0 0 38 38" fill="none" xmlns="http://www.w3.org/2000/svg">
<path d="M35.0978 16.6024L33.0968 15.9354L29.897 8.46913C29.6072 7.79307 28.9425 7.35474 28.2069 7.35474H2.4516C1.77465 7.35474 1.2258 7.90351 1.2258 8.58053V25.7418H36.7742V18.9282C36.7742 17.8729 36.099 16.936 35.0978 16.6024Z" fill="#E4EAF8"/>
<path d="M35.0978 16.6024L33.0968 15.9354L29.897 8.46913C29.6072 7.79307 28.9425 7.35474 28.2069 7.35474H2.4516C1.77465 7.35474 1.2258 7.90351 1.2258 8.58053V20.8386H36.7742V18.9282C36.7742 17.8729 36.099 16.936 35.0978 16.6024Z" fill="#87DCFF"/>
<path d="M11.0323 14.7095C10.6934 14.7095 10.4194 14.4354 10.4194 14.0966V13.7656C10.4194 13.5453 10.3182 13.349 10.1626 13.2652C9.56465 12.9432 9.19356 12.3225 9.19356 11.645C9.19356 10.6311 10.0184 9.80627 11.0323 9.80627C12.0462 9.80627 12.8709 10.6311 12.8709 11.645C12.8709 11.9838 12.5968 12.2579 12.258 12.2579C11.9193 12.2579 11.6452 11.9837 11.6452 11.645C11.6452 11.3068 11.3704 11.0321 11.0323 11.0321C10.6941 11.0321 10.4194 11.3068 10.4194 11.645C10.4194 11.8712 10.5432 12.0783 10.7432 12.186C11.2992 12.4841 11.6452 13.0898 11.6452 13.7655V14.0966C11.6452 14.4354 11.3711 14.7095 11.0323 14.7095Z" fill="white"/>
<path d="M35.5483 18.3868H1.2258V20.8383H35.5483V18.3868Z" fill="#00C3FF"/>
<path d="M3.67739 20.8385H1.2258V25.7418H36.7742V24.516H7.35486C5.32386 24.516 3.67739 22.8696 3.67739 20.8385Z" fill="#D5DCED"/>
<path d="M3.83815 25.7417H13.3232C12.7781 23.628 10.8645 22.0643 8.58065 22.0643C6.29679 22.0643 4.38321 23.628 3.83815 25.7417Z" fill="#AFB9D2"/>
<path d="M8.58044 30.6453C10.6114 30.6453 12.2578 28.9989 12.2578 26.9679C12.2578 24.937 10.6114 23.2905 8.58044 23.2905C6.54947 23.2905 4.90305 24.937 4.90305 26.9679C4.90305 28.9989 6.54947 30.6453 8.58044 30.6453Z" fill="#5B5D6E"/>
<path d="M8.58043 29.113C9.76516 29.113 10.7256 28.1526 10.7256 26.9679C10.7256 25.7832 9.76516 24.8228 8.58043 24.8228C7.3957 24.8228 6.43529 25.7832 6.43529 26.9679C6.43529 28.1526 7.3957 29.113 8.58043 29.113Z" fill="#AFB9D2"/>
<path d="M8.58043 28.1937C9.25742 28.1937 9.80622 27.6449 9.80622 26.9679C9.80622 26.2909 9.25742 25.7421 8.58043 25.7421C7.90344 25.7421 7.35463 26.2909 7.35463 26.9679C7.35463 27.6449 7.90344 28.1937 8.58043 28.1937Z" fill="#959CB5"/>
<path d="M25.9026 25.7417H35.3877C34.8426 23.628 32.929 22.0643 30.6452 22.0643C28.3613 22.0643 26.4477 23.628 25.9026 25.7417Z" fill="#AFB9D2"/>
<path d="M30.6449 30.6453C32.6759 30.6453 34.3223 28.9989 34.3223 26.9679C34.3223 24.937 32.6759 23.2905 30.6449 23.2905C28.614 23.2905 26.9675 24.937 26.9675 26.9679C26.9675 28.9989 28.614 30.6453 30.6449 30.6453Z" fill="#5B5D6E"/>
<path d="M30.6449 29.113C31.8297 29.113 32.7901 28.1526 32.7901 26.9679C32.7901 25.7832 31.8297 24.8228 30.6449 24.8228C29.4602 24.8228 28.4998 25.7832 28.4998 26.9679C28.4998 28.1526 29.4602 29.113 30.6449 29.113Z" fill="#AFB9D2"/>
<path d="M30.6449 28.1937C31.3219 28.1937 31.8707 27.6449 31.8707 26.9679C31.8707 26.2909 31.3219 25.7421 30.6449 25.7421C29.9679 25.7421 29.4191 26.2909 29.4191 26.9679C29.4191 27.6449 29.9679 28.1937 30.6449 28.1937Z" fill="#959CB5"/>
<path d="M1.8387 25.7418H0.612898C0.274387 25.7418 0 25.4674 0 25.1289V23.9031C0 23.5645 0.274387 23.2902 0.612898 23.2902H1.8387C2.17721 23.2902 2.45159 23.5645 2.45159 23.9031V25.1289C2.45159 25.4673 2.17721 25.7418 1.8387 25.7418Z" fill="#AFB9D2"/>
<path d="M20.2258 9.80623V14.0965C20.2258 15.112 21.049 15.9352 22.0645 15.9352H28.8065L26.3389 10.1776C26.2423 9.95229 26.0207 9.80615 25.7756 9.80615H20.2258V9.80623Z" fill="#00AAF0"/>
<path d="M15.1777 18.387H6.88675C6.13084 18.387 5.51608 17.7723 5.51608 17.0163C5.51608 16.4944 5.80635 16.0251 6.27326 15.7911L10.7581 13.5484C10.9305 13.4622 11.134 13.4622 11.3063 13.5484L15.7905 15.7905C16.258 16.0251 16.5483 16.4944 16.5483 17.0163C16.5484 17.7723 15.9336 18.387 15.1777 18.387ZM11.0322 14.782L6.82211 16.887C6.77305 16.9116 6.74188 16.9613 6.74188 17.0163C6.74188 17.096 6.80712 17.1612 6.88675 17.1612H15.1777C15.2574 17.1612 15.3226 17.096 15.3226 17.0163C15.3226 16.9613 15.2915 16.9116 15.2418 16.8864L11.0322 14.782Z" fill="#E4EAF8"/>
<path d="M7.96776 18.9998C7.62895 18.9998 7.35486 18.7257 7.35486 18.3869V17.774C7.35486 17.4352 7.62902 17.1611 7.96776 17.1611C8.30657 17.1611 8.58066 17.4353 8.58066 17.774V18.3869C8.58066 18.7257 8.30649 18.9998 7.96776 18.9998Z" fill="white"/>
<path d="M14.0968 18.9998C13.7579 18.9998 13.4839 18.7257 13.4839 18.3869V17.774C13.4839 17.4352 13.758 17.1611 14.0968 17.1611C14.4355 17.1611 14.7097 17.4353 14.7097 17.774V18.3869C14.7097 18.7257 14.4356 18.9998 14.0968 18.9998Z" fill="white"/>
<path d="M37.3871 25.7418H36.7742C36.4357 25.7418 36.1613 25.4674 36.1613 25.1289V23.9031C36.1613 23.5645 36.4357 23.2902 36.7742 23.2902H37.3871C37.7256 23.2902 38 23.5645 38 23.9031V25.1289C38 25.4673 37.7256 25.7418 37.3871 25.7418Z" fill="#AFB9D2"/>
<path d="M28.0185 9.80627L30.4859 15.5639C30.5825 15.7892 30.8041 15.9353 31.0493 15.9353H33.0968L30.4701 9.80627H28.0185Z" fill="#00AAF0"/>
<path d="M30.4701 9.80621L29.897 8.46901C29.6072 7.79295 28.9425 7.35461 28.2069 7.35461H2.4516C1.77465 7.35461 1.2258 7.90339 1.2258 8.58041V9.80621H30.4701Z" fill="#A0EBFF"/>
<path d="M36.7064 18.387H34.9355C34.597 18.387 34.3226 18.6613 34.3226 18.9999V19.6128C34.3226 20.2898 34.8714 20.8386 35.5484 20.8386H36.7742V18.9282C36.7742 18.7424 36.7464 18.5627 36.7064 18.387Z" fill="#FFF082"/>
<path d="M3.67725 18.3868H1.2258V20.8383H3.67725V18.3868Z" fill="#00AAF0"/>
<path d="M3.67739 18.387H1.2258V11.0321C2.57977 11.0321 3.67739 12.1297 3.67739 13.4837C3.67739 13.4836 3.67739 18.387 3.67739 18.387Z" fill="#00C3FF"/>
</svg>
