<svg width="38" height="38" viewBox="0 0 38 38" fill="none" xmlns="http://www.w3.org/2000/svg">
<path d="M19 38C29.4934 38 38 29.4934 38 19C38 8.50659 29.4934 0 19 0C8.50659 0 0 8.50659 0 19C0 29.4934 8.50659 38 19 38Z" fill="#D5DCED"/>
<path d="M19 34.9355C27.801 34.9355 34.9355 27.8009 34.9355 19C34.9355 10.199 27.801 3.06445 19 3.06445C10.1991 3.06445 3.06451 10.199 3.06451 19C3.06451 27.8009 10.1991 34.9355 19 34.9355Z" fill="#C7CFE2"/>
<path d="M19 33.7094C27.1238 33.7094 33.7094 27.1237 33.7094 18.9999C33.7094 10.8762 27.1238 4.29053 19 4.29053C10.8762 4.29053 4.29059 10.8762 4.29059 18.9999C4.29059 27.1237 10.8762 33.7094 19 33.7094Z" fill="#959CB5"/>
<path d="M19 31.871C26.1084 31.871 31.871 26.1085 31.871 19C31.871 11.8916 26.1084 6.12903 19 6.12903C11.8915 6.12903 6.12897 11.8916 6.12897 19C6.12897 26.1085 11.8915 31.871 19 31.871Z" fill="#464655"/>
<path d="M19 30.0326C25.0932 30.0326 30.0326 25.0932 30.0326 19C30.0326 12.9069 25.0932 7.96741 19 7.96741C12.9069 7.96741 7.96741 12.9069 7.96741 19C7.96741 25.0932 12.9069 30.0326 19 30.0326Z" fill="#5B5D6E"/>
<path d="M23.2906 20.8389C25.6601 20.8389 27.5809 18.9181 27.5809 16.5486C27.5809 14.1791 25.6601 12.2583 23.2906 12.2583C20.9211 12.2583 19.0003 14.1791 19.0003 16.5486C19.0003 18.9181 20.9211 20.8389 23.2906 20.8389Z" fill="#7F8499"/>
<path d="M16.5486 15.9352C17.2255 15.9352 17.7743 15.3864 17.7743 14.7094C17.7743 14.0325 17.2255 13.4836 16.5486 13.4836C15.8716 13.4836 15.3228 14.0325 15.3228 14.7094C15.3228 15.3864 15.8716 15.9352 16.5486 15.9352Z" fill="#00C3FF"/>
<path d="M20.8384 11.952C21.3462 11.952 21.7578 11.5404 21.7578 11.0326C21.7578 10.5249 21.3462 10.1133 20.8384 10.1133C20.3307 10.1133 19.9191 10.5249 19.9191 11.0326C19.9191 11.5404 20.3307 11.952 20.8384 11.952Z" fill="#00C3FF"/>
<path d="M23.5971 15.0158C23.9356 15.0158 24.21 14.7414 24.21 14.4029C24.21 14.0644 23.9356 13.79 23.5971 13.79C23.2586 13.79 22.9842 14.0644 22.9842 14.4029C22.9842 14.7414 23.2586 15.0158 23.5971 15.0158Z" fill="#87DCFF"/>
<path d="M6.12903 19C6.12903 26.1084 11.8916 31.8709 19 31.8709C26.1083 31.8709 31.8709 26.1084 31.8709 19C31.8709 18.7934 31.8496 18.5924 31.84 18.3882C29.7266 18.4005 29.7138 19.6129 27.5786 19.6129C25.4325 19.6129 25.4325 18.3871 23.2863 18.3871C21.1416 18.3871 21.1416 19.6129 18.997 19.6129C16.8516 19.6129 16.8516 18.3871 14.7063 18.3871C12.5617 18.3871 12.5617 19.6129 10.4172 19.6129C8.28404 19.6129 8.27135 18.4006 6.15998 18.3882C6.15025 18.5924 6.12903 18.7934 6.12903 19Z" fill="#00AAF0"/>
<path d="M30.0239 18.8354C29.3679 19.1855 28.8474 19.6129 27.5786 19.6129C25.4325 19.6129 25.4325 18.3871 23.2864 18.3871C21.1417 18.3871 21.1417 19.6129 18.997 19.6129C16.8517 19.6129 16.8517 18.3871 14.7064 18.3871C12.5617 18.3871 12.5617 19.6129 10.4172 19.6129C9.15073 19.6129 8.63061 19.1862 7.97607 18.8364C7.97526 18.8914 7.96783 18.9448 7.96783 19C7.96783 25.0929 12.9072 30.0322 19.0001 30.0322C25.093 30.0322 30.0322 25.0929 30.0322 19C30.0322 18.9445 30.0247 18.8908 30.0239 18.8354Z" fill="#00C3FF"/>
<path d="M29.4194 16.0634V21.9366C29.4194 23.0857 30.2174 24.0806 31.3392 24.3299L33.8109 24.8792C34.5339 23.0595 34.9355 21.0772 34.9355 19.0001C34.9355 16.9228 34.5339 14.9406 33.8109 13.121L31.3392 13.6703C30.2174 13.9194 29.4194 14.9143 29.4194 16.0634Z" fill="#C7CFE2"/>
<path d="M23.2864 18.3871C21.6142 18.3871 21.2423 19.1303 20.1445 19.4587C20.9281 20.3054 22.0456 20.8387 23.2904 20.8387C24.5344 20.8387 25.6514 20.3059 26.435 19.46C25.333 19.1324 24.9621 18.3871 23.2864 18.3871Z" fill="#87DCFF"/>
</svg>
